<svg version="1.1" id="Layer_1" xmlns="http://www.w3.org/2000/svg" xmlns:xlink="http://www.w3.org/1999/xlink" x="0px" y="0px"
	 width="100%" viewBox="0 0 796 253" enable-background="new 0 0 796 253" xml:space="preserve">
<path fill="#FEFEFE" opacity="1.000000" stroke="none" 
	d="
M520.000000,254.000000 
	C346.707825,254.000000 173.915649,254.000000 1.061733,254.000000 
	C1.061733,169.727936 1.061733,85.455826 1.061733,1.091855 
	C266.333313,1.091855 531.666626,1.091855 796.966797,1.091855 
	C796.966797,85.417755 796.966797,169.708893 796.966797,254.000000 
	C704.789062,254.000000 612.644531,254.000000 520.000000,254.000000 
M23.093113,123.499977 
	C23.095684,132.993805 22.986271,142.489319 23.129053,151.981049 
	C23.309261,163.960785 32.060135,172.845932 44.040291,172.935181 
	C65.192123,173.092773 86.346161,173.032623 107.498848,172.951859 
	C113.896797,172.927444 119.411949,170.766663 123.924950,164.684540 
	C113.543335,154.553635 103.190453,144.678543 93.101562,134.540756 
	C83.227463,124.618805 82.491920,109.955414 91.018570,99.639221 
	C99.627037,89.224052 113.819382,87.225372 125.684746,94.742935 
	C126.429520,95.214798 127.245064,95.574974 128.485123,96.228004 
	C128.485123,84.781998 128.489929,73.992867 128.473114,63.203770 
	C128.472107,62.559837 128.297943,61.916180 128.122742,60.710991 
	C120.691299,60.710991 113.309326,60.710991 106.066025,60.710991 
	C102.049271,41.390793 92.717476,31.433071 77.085014,31.274244 
	C71.271103,31.215174 64.874908,33.299683 59.714893,36.158611 
	C50.521709,41.252140 46.769413,50.386818 45.973125,61.060577 
	C38.050125,61.060577 30.658239,61.060577 23.093113,61.060577 
	C23.093113,81.891930 23.093113,102.195946 23.093113,123.499977 
M721.112915,168.626801 
	C721.112915,165.895447 721.112915,163.164108 721.112915,159.684433 
	C730.580200,168.912064 741.001892,171.387360 752.791748,168.340042 
	C779.599487,161.411026 789.292236,127.464607 772.985046,105.509163 
	C761.295593,89.770767 736.376404,83.156151 721.329407,100.650085 
	C721.201843,100.798424 720.750671,100.668495 719.918457,100.668495 
	C719.918457,97.185036 719.918457,93.656456 719.918457,90.297546 
	C713.307007,90.297546 707.231079,90.297546 701.328857,90.297546 
	C701.328857,124.777740 701.328857,158.958206 701.328857,192.876068 
	C708.118103,192.876068 714.522522,192.876068 721.113037,192.876068 
	C721.113037,184.882996 721.113037,177.238495 721.112915,168.626801 
M230.529434,166.126587 
	C240.335098,161.071732 246.157196,153.357086 246.169815,142.024277 
	C246.185776,127.692184 238.386154,119.087128 224.945190,114.613701 
	C236.216064,110.125092 241.119171,105.475922 243.061539,97.707298 
	C247.409485,80.317467 235.606689,64.278923 216.799515,63.092754 
	C203.861847,62.276775 190.845215,62.711239 177.863831,62.592052 
	C176.086655,62.575737 174.309235,62.589809 172.632431,62.589809 
	C172.632431,98.774658 172.632431,134.307449 172.632431,170.010635 
	C186.293488,170.010635 199.617798,170.352219 212.910278,169.850281 
	C218.595520,169.635605 224.214401,167.663284 230.529434,166.126587 
M579.253723,137.500793 
	C579.253723,148.094269 579.253723,158.687759 579.253723,169.438660 
	C586.539490,169.438660 593.104858,169.438660 600.006165,169.438660 
	C600.006165,163.997757 600.093079,158.856018 599.989075,153.718124 
	C599.730103,140.921356 600.072327,128.060852 598.862671,115.350662 
	C597.833679,104.538033 592.275635,95.724220 581.272583,92.153946 
	C570.309631,88.596710 560.283508,90.462021 552.153442,99.296150 
	C551.903076,99.568230 551.381836,99.591049 550.483276,99.907379 
	C550.483276,87.800011 550.483276,76.040787 550.483276,64.332756 
	C543.799377,64.332756 537.562866,64.332756 531.422363,64.332756 
	C531.422363,99.548065 531.422363,134.422867 531.422363,169.378021 
	C538.354492,169.378021 544.923523,169.378021 551.675476,169.378021 
	C551.778442,167.893036 551.923767,166.761658 551.925171,165.630112 
	C551.942810,151.637573 551.873169,137.644577 551.967041,123.652641 
	C552.020630,115.669556 557.467651,110.198509 565.292480,109.948257 
	C574.119690,109.665947 578.453186,113.547318 578.992859,122.523323 
	C579.272278,127.171150 579.178772,131.841415 579.253723,137.500793 
M622.578247,165.995178 
	C637.593689,177.140976 653.455811,177.758560 669.648743,169.138229 
	C684.643677,161.155624 691.354248,147.668442 690.793701,131.320374 
	C690.150330,112.554543 681.497131,97.694778 663.754028,90.079796 
	C645.427551,82.214424 627.725647,85.068527 611.369385,96.240913 
	C610.546387,96.803101 609.972778,99.061501 610.426941,99.936279 
	C612.608459,104.138161 615.183411,108.135788 617.392761,111.828369 
	C623.194031,109.260712 628.363525,106.166740 633.960510,104.638786 
	C655.080627,98.873077 669.374573,107.071564 672.484558,126.909882 
	C674.108643,137.269485 671.830078,147.221375 662.492371,153.385025 
	C653.582214,159.266495 643.775635,159.761948 634.343567,154.012268 
	C625.168579,148.419342 624.395203,137.897736 632.261780,130.568802 
	C633.223633,129.672653 634.220642,127.577759 633.811035,126.656708 
	C631.885498,122.327148 629.474548,118.213470 626.688904,112.996574 
	C622.647278,116.788879 618.655762,119.582512 615.899841,123.293709 
	C606.626831,135.781113 609.338074,153.083832 622.578247,165.995178 
M478.783386,148.845612 
	C477.034454,146.825516 475.477386,143.318741 473.500641,143.063599 
	C467.530762,142.293060 461.397858,142.785324 455.328522,142.785324 
	C454.918671,143.256607 454.508789,143.727890 454.098938,144.199158 
	C456.703094,149.028610 458.506744,154.571640 462.058624,158.556305 
	C473.621399,171.527969 498.439117,173.071304 512.180542,162.293274 
	C521.416382,155.049164 524.008423,142.321136 518.221680,132.417252 
	C514.337402,125.769356 507.889496,122.938698 500.896484,120.990852 
	C494.700867,119.265106 488.338593,118.004272 482.330780,115.779625 
	C477.485382,113.985405 476.391449,109.325226 479.309875,106.245590 
	C483.598114,101.720497 496.036377,103.479256 499.039185,108.934555 
	C499.551666,109.865585 500.772247,110.985291 501.698608,111.015701 
	C507.493744,111.205948 513.298157,111.111778 519.094482,111.111778 
	C519.057922,103.435219 516.781250,98.315323 511.520081,93.646599 
	C499.328674,82.828041 475.997070,83.572739 464.378662,94.837029 
	C454.869049,104.056862 454.630157,122.777649 469.584961,129.503479 
	C473.345856,131.194931 477.224121,132.655228 481.125977,133.996002 
	C486.254639,135.758301 491.609375,136.952225 496.561371,139.096268 
	C498.641937,139.997086 501.436951,142.898407 501.223785,144.542343 
	C500.943756,146.701996 498.376740,149.314941 496.153534,150.325180 
	C490.594604,152.851212 484.872314,152.181580 478.783386,148.845612 
M283.469391,159.235504 
	C270.451904,156.762589 261.287872,145.008453 262.770508,132.106323 
	C284.601868,132.106323 306.495789,132.106323 329.024323,132.106323 
	C329.024323,128.314789 329.092285,125.018867 329.013153,121.726479 
	C328.554779,102.657623 316.033386,87.544861 297.956787,84.193184 
	C277.274994,80.358459 258.093842,89.775558 251.468216,108.013130 
	C249.088089,114.564636 248.133942,121.972351 248.131348,128.989899 
	C248.121078,156.840530 267.280853,173.752228 294.984894,171.005280 
	C308.981964,169.617416 321.861176,159.179031 325.797272,145.689468 
	C321.722168,145.689468 317.754791,145.493210 313.826569,145.799210 
	C312.506714,145.902023 310.825653,146.986664 310.093109,148.126144 
	C303.961884,157.663834 295.108063,160.707596 283.469391,159.235504 
M434.664307,108.147720 
	C435.461823,113.371719 436.840851,118.583939 436.946960,123.821953 
	C437.256287,139.091766 437.056793,154.371902 437.056793,169.754639 
	C441.893524,169.754639 446.279510,169.754639 450.942352,169.754639 
	C450.942352,158.835236 451.061249,148.200897 450.906189,137.570587 
	C450.772797,128.426254 451.063599,119.186928 449.844788,110.168266 
	C448.057098,96.939743 440.265991,87.842384 427.124756,84.684120 
	C414.138275,81.563049 402.288727,83.834473 393.470642,95.078957 
	C392.966003,95.722427 392.286743,96.228958 390.987183,97.468269 
	C390.987183,85.712151 390.987183,74.980255 390.987183,64.371773 
	C386.223419,64.371773 381.849518,64.371773 377.486511,64.371773 
	C377.486511,99.679359 377.486511,134.604904 377.486511,169.786652 
	C382.079987,169.786652 386.468567,169.786652 391.180328,169.786652 
	C391.180328,162.099884 391.088654,154.637955 391.202118,147.179138 
	C391.366608,136.366409 391.152985,125.510544 392.080536,114.757591 
	C392.965057,104.503525 399.939545,97.715591 409.403076,96.146599 
	C420.583923,94.292870 429.174744,98.214554 434.664307,108.147720 
M139.254990,97.459503 
	C135.551117,99.866798 131.847260,102.274094 127.760361,104.930336 
	C126.608940,103.850952 125.225220,102.444160 123.728020,101.170784 
	C119.191093,97.312134 113.905411,95.386398 108.042160,96.608765 
	C91.983475,99.956688 86.434715,117.347473 97.740112,129.759399 
	C106.473015,139.347031 115.976677,148.231659 125.109222,157.456985 
	C127.227112,159.596375 129.336609,160.007904 131.579269,157.750381 
	C140.961456,148.306000 150.610641,139.106110 159.612854,129.311905 
	C166.281509,122.056549 166.624954,113.070534 161.712280,105.344543 
	C157.171677,98.203674 149.114395,95.181084 139.254990,97.459503 
M338.153046,84.291824 
	C334.767456,84.626999 331.381836,84.962181 327.986359,85.298340 
	C327.986359,88.983459 327.986359,92.564232 327.986359,96.607513 
	C331.527313,96.607513 334.775421,96.607513 338.366730,96.607513 
	C338.366730,105.876228 338.304840,114.677437 338.383118,123.477402 
	C338.471954,133.465317 338.269409,143.481461 338.969727,153.430695 
	C339.600555,162.393234 344.660095,167.850143 353.590210,169.240250 
	C360.227570,170.273453 367.070435,169.986389 373.845917,170.288452 
	C373.845917,165.967163 373.845917,162.398148 373.845917,158.473953 
	C370.760498,158.473953 367.952820,158.491791 365.145416,158.470795 
	C354.305389,158.389786 352.457794,156.564240 352.422668,145.575729 
	C352.374756,130.580734 352.402740,115.585442 352.428467,100.590332 
	C352.430634,99.321159 352.661072,98.052391 352.831543,96.313477 
	C360.019409,96.313477 366.925903,96.313477 373.721252,96.313477 
	C373.721252,92.225449 373.721252,88.648262 373.721252,84.672989 
	C366.487701,84.672989 359.572021,84.672989 352.348328,84.672989 
	C352.348328,77.636353 352.348328,71.006256 352.348328,64.224899 
	C347.609161,64.224899 343.200226,64.224899 338.341370,64.224899 
	C338.341370,70.748909 338.341370,77.044739 338.153046,84.291824 
z"/>
<path fill="#030303" opacity="1.000000" stroke="none" 
	d="
M23.093113,122.999969 
	C23.093113,102.195946 23.093113,81.891930 23.093113,61.060577 
	C30.658239,61.060577 38.050125,61.060577 45.973125,61.060577 
	C46.769413,50.386818 50.521709,41.252140 59.714893,36.158611 
	C64.874908,33.299683 71.271103,31.215174 77.085014,31.274244 
	C92.717476,31.433071 102.049271,41.390793 106.066025,60.710991 
	C113.309326,60.710991 120.691299,60.710991 128.122742,60.710991 
	C128.297943,61.916180 128.472107,62.559837 128.473114,63.203770 
	C128.489929,73.992867 128.485123,84.781998 128.485123,96.228004 
	C127.245064,95.574974 126.429520,95.214798 125.684746,94.742935 
	C113.819382,87.225372 99.627037,89.224052 91.018570,99.639221 
	C82.491920,109.955414 83.227463,124.618805 93.101562,134.540756 
	C103.190453,144.678543 113.543335,154.553635 123.924950,164.684540 
	C119.411949,170.766663 113.896797,172.927444 107.498848,172.951859 
	C86.346161,173.032623 65.192123,173.092773 44.040291,172.935181 
	C32.060135,172.845932 23.309261,163.960785 23.129053,151.981049 
	C22.986271,142.489319 23.095684,132.993805 23.093113,122.999969 
M83.041924,41.170303 
	C68.239784,37.060997 55.125267,46.123226 55.203438,60.673176 
	C69.040276,60.673176 82.877892,60.673176 96.721565,60.673176 
	C96.530418,51.799450 92.422058,45.787685 83.041924,41.170303 
M105.023758,73.971420 
	C103.233345,73.252899 101.403458,71.949966 99.669479,72.067062 
	C98.826523,72.123993 97.344177,75.030220 97.643242,76.293350 
	C97.956177,77.615044 100.059113,78.512932 101.379631,79.596069 
	C102.653793,77.973160 103.927956,76.350250 105.023758,73.971420 
M54.577019,75.475189 
	C53.936604,72.313538 52.149647,70.511337 48.963955,71.962677 
	C47.814228,72.486458 46.641758,74.596992 46.774754,75.845474 
	C46.911381,77.127991 48.888592,79.370430 49.604855,79.206207 
	C51.358215,78.804207 52.848942,77.256721 54.577019,75.475189 
z"/>
<path fill="#010101" opacity="1.000000" stroke="none" 
	d="
M721.112976,169.110397 
	C721.113037,177.238495 721.113037,184.882996 721.113037,192.876068 
	C714.522522,192.876068 708.118103,192.876068 701.328857,192.876068 
	C701.328857,158.958206 701.328857,124.777740 701.328857,90.297546 
	C707.231079,90.297546 713.307007,90.297546 719.918457,90.297546 
	C719.918457,93.656456 719.918457,97.185036 719.918457,100.668495 
	C720.750671,100.668495 721.201843,100.798424 721.329407,100.650085 
	C736.376404,83.156151 761.295593,89.770767 772.985046,105.509163 
	C789.292236,127.464607 779.599487,161.411026 752.791748,168.340042 
	C741.001892,171.387360 730.580200,168.912064 721.112915,159.684433 
	C721.112915,163.164108 721.112915,165.895447 721.112976,169.110397 
M736.151855,149.909851 
	C740.796448,149.193359 745.775024,149.298782 750.011230,147.577332 
	C757.267944,144.628494 761.772400,135.517456 760.853333,127.983627 
	C759.809875,119.429665 753.610474,112.121994 745.701233,110.122467 
	C737.572327,108.067398 728.830383,111.197594 724.117432,117.846947 
	C716.038696,129.244965 720.597107,145.015625 736.151855,149.909851 
z"/>
<path fill="#050505" opacity="1.000000" stroke="none" 
	d="
M230.196442,166.308105 
	C224.214401,167.663284 218.595520,169.635605 212.910278,169.850281 
	C199.617798,170.352219 186.293488,170.010635 172.632431,170.010635 
	C172.632431,134.307449 172.632431,98.774658 172.632431,62.589809 
	C174.309235,62.589809 176.086655,62.575737 177.863831,62.592052 
	C190.845215,62.711239 203.861847,62.276775 216.799515,63.092754 
	C235.606689,64.278923 247.409485,80.317467 243.061539,97.707298 
	C241.119171,105.475922 236.216064,110.125092 224.945190,114.613701 
	C238.386154,119.087128 246.185776,127.692184 246.169815,142.024277 
	C246.157196,153.357086 240.335098,161.071732 230.196442,166.308105 
M186.172699,131.526871 
	C186.172699,140.480835 186.172699,149.434814 186.172699,158.306900 
	C196.582169,158.306900 206.589096,159.069077 216.425537,158.100281 
	C227.028854,157.055939 232.813293,149.468842 232.563583,139.364502 
	C232.326111,129.755524 225.984848,122.079178 215.998169,121.251656 
	C206.279572,120.446350 196.442001,121.076744 186.172699,121.076744 
	C186.172699,124.287857 186.172699,127.413368 186.172699,131.526871 
M225.699188,103.153114 
	C234.418457,91.396019 229.348053,76.696091 215.051346,74.674026 
	C205.684326,73.349190 195.977921,74.423874 186.466003,74.423874 
	C186.466003,86.032547 186.466003,97.420837 186.466003,108.953217 
	C195.712952,108.953217 204.714432,109.478348 213.605087,108.714119 
	C217.578278,108.372581 221.328903,105.441826 225.699188,103.153114 
z"/>
<path fill="#040404" opacity="1.000000" stroke="none" 
	d="
M579.253723,137.001160 
	C579.178772,131.841415 579.272278,127.171150 578.992859,122.523323 
	C578.453186,113.547318 574.119690,109.665947 565.292480,109.948257 
	C557.467651,110.198509 552.020630,115.669556 551.967041,123.652641 
	C551.873169,137.644577 551.942810,151.637573 551.925171,165.630112 
	C551.923767,166.761658 551.778442,167.893036 551.675476,169.378021 
	C544.923523,169.378021 538.354492,169.378021 531.422363,169.378021 
	C531.422363,134.422867 531.422363,99.548065 531.422363,64.332756 
	C537.562866,64.332756 543.799377,64.332756 550.483276,64.332756 
	C550.483276,76.040787 550.483276,87.800011 550.483276,99.907379 
	C551.381836,99.591049 551.903076,99.568230 552.153442,99.296150 
	C560.283508,90.462021 570.309631,88.596710 581.272583,92.153946 
	C592.275635,95.724220 597.833679,104.538033 598.862671,115.350662 
	C600.072327,128.060852 599.730103,140.921356 599.989075,153.718124 
	C600.093079,158.856018 600.006165,163.997757 600.006165,169.438660 
	C593.104858,169.438660 586.539490,169.438660 579.253723,169.438660 
	C579.253723,158.687759 579.253723,148.094269 579.253723,137.001160 
z"/>
<path fill="#020202" opacity="1.000000" stroke="none" 
	d="
M622.317383,165.749207 
	C609.338074,153.083832 606.626831,135.781113 615.899841,123.293709 
	C618.655762,119.582512 622.647278,116.788879 626.688904,112.996574 
	C629.474548,118.213470 631.885498,122.327148 633.811035,126.656708 
	C634.220642,127.577759 633.223633,129.672653 632.261780,130.568802 
	C624.395203,137.897736 625.168579,148.419342 634.343567,154.012268 
	C643.775635,159.761948 653.582214,159.266495 662.492371,153.385025 
	C671.830078,147.221375 674.108643,137.269485 672.484558,126.909882 
	C669.374573,107.071564 655.080627,98.873077 633.960510,104.638786 
	C628.363525,106.166740 623.194031,109.260712 617.392761,111.828369 
	C615.183411,108.135788 612.608459,104.138161 610.426941,99.936279 
	C609.972778,99.061501 610.546387,96.803101 611.369385,96.240913 
	C627.725647,85.068527 645.427551,82.214424 663.754028,90.079796 
	C681.497131,97.694778 690.150330,112.554543 690.793701,131.320374 
	C691.354248,147.668442 684.643677,161.155624 669.648743,169.138229 
	C653.455811,177.758560 637.593689,177.140976 622.317383,165.749207 
z"/>
<path fill="#020202" opacity="1.000000" stroke="none" 
	d="
M479.151093,148.976746 
	C484.872314,152.181580 490.594604,152.851212 496.153534,150.325180 
	C498.376740,149.314941 500.943756,146.701996 501.223785,144.542343 
	C501.436951,142.898407 498.641937,139.997086 496.561371,139.096268 
	C491.609375,136.952225 486.254639,135.758301 481.125977,133.996002 
	C477.224121,132.655228 473.345856,131.194931 469.584961,129.503479 
	C454.630157,122.777649 454.869049,104.056862 464.378662,94.837029 
	C475.997070,83.572739 499.328674,82.828041 511.520081,93.646599 
	C516.781250,98.315323 519.057922,103.435219 519.094482,111.111778 
	C513.298157,111.111778 507.493744,111.205948 501.698608,111.015701 
	C500.772247,110.985291 499.551666,109.865585 499.039185,108.934555 
	C496.036377,103.479256 483.598114,101.720497 479.309875,106.245590 
	C476.391449,109.325226 477.485382,113.985405 482.330780,115.779625 
	C488.338593,118.004272 494.700867,119.265106 500.896484,120.990852 
	C507.889496,122.938698 514.337402,125.769356 518.221680,132.417252 
	C524.008423,142.321136 521.416382,155.049164 512.180542,162.293274 
	C498.439117,173.071304 473.621399,171.527969 462.058624,158.556305 
	C458.506744,154.571640 456.703094,149.028610 454.098938,144.199158 
	C454.508789,143.727890 454.918671,143.256607 455.328522,142.785324 
	C461.397858,142.785324 467.530762,142.293060 473.500641,143.063599 
	C475.477386,143.318741 477.034454,146.825516 479.151093,148.976746 
z"/>
<path fill="#040404" opacity="1.000000" stroke="none" 
	d="
M283.882477,159.309692 
	C295.108063,160.707596 303.961884,157.663834 310.093109,148.126144 
	C310.825653,146.986664 312.506714,145.902023 313.826569,145.799210 
	C317.754791,145.493210 321.722168,145.689468 325.797272,145.689468 
	C321.861176,159.179031 308.981964,169.617416 294.984894,171.005280 
	C267.280853,173.752228 248.121078,156.840530 248.131348,128.989899 
	C248.133942,121.972351 249.088089,114.564636 251.468216,108.013130 
	C258.093842,89.775558 277.274994,80.358459 297.956787,84.193184 
	C316.033386,87.544861 328.554779,102.657623 329.013153,121.726479 
	C329.092285,125.018867 329.024323,128.314789 329.024323,132.106323 
	C306.495789,132.106323 284.601868,132.106323 262.770508,132.106323 
	C261.287872,145.008453 270.451904,156.762589 283.882477,159.309692 
M278.699463,96.964195 
	C267.755707,101.546593 263.273315,110.374260 262.321869,121.637344 
	C279.837524,121.637344 297.180695,121.637344 314.523712,121.637344 
	C314.253784,100.802101 295.140991,90.962158 278.699463,96.964195 
z"/>
<path fill="#060606" opacity="1.000000" stroke="none" 
	d="
M434.459412,107.819473 
	C429.174744,98.214554 420.583923,94.292870 409.403076,96.146599 
	C399.939545,97.715591 392.965057,104.503525 392.080536,114.757591 
	C391.152985,125.510544 391.366608,136.366409 391.202118,147.179138 
	C391.088654,154.637955 391.180328,162.099884 391.180328,169.786652 
	C386.468567,169.786652 382.079987,169.786652 377.486511,169.786652 
	C377.486511,134.604904 377.486511,99.679359 377.486511,64.371773 
	C381.849518,64.371773 386.223419,64.371773 390.987183,64.371773 
	C390.987183,74.980255 390.987183,85.712151 390.987183,97.468269 
	C392.286743,96.228958 392.966003,95.722427 393.470642,95.078957 
	C402.288727,83.834473 414.138275,81.563049 427.124756,84.684120 
	C440.265991,87.842384 448.057098,96.939743 449.844788,110.168266 
	C451.063599,119.186928 450.772797,128.426254 450.906189,137.570587 
	C451.061249,148.200897 450.942352,158.835236 450.942352,169.754639 
	C446.279510,169.754639 441.893524,169.754639 437.056793,169.754639 
	C437.056793,154.371902 437.256287,139.091766 436.946960,123.821953 
	C436.840851,118.583939 435.461823,113.371719 434.459412,107.819473 
z"/>
<path fill="#7CB9B6" opacity="1.000000" stroke="none" 
	d="
M139.627472,97.329460 
	C149.114395,95.181084 157.171677,98.203674 161.712280,105.344543 
	C166.624954,113.070534 166.281509,122.056549 159.612854,129.311905 
	C150.610641,139.106110 140.961456,148.306000 131.579269,157.750381 
	C129.336609,160.007904 127.227112,159.596375 125.109222,157.456985 
	C115.976677,148.231659 106.473015,139.347031 97.740112,129.759399 
	C86.434715,117.347473 91.983475,99.956688 108.042160,96.608765 
	C113.905411,95.386398 119.191093,97.312134 123.728020,101.170784 
	C125.225220,102.444160 126.608940,103.850952 127.760361,104.930336 
	C131.847260,102.274094 135.551117,99.866798 139.627472,97.329460 
z"/>
<path fill="#060606" opacity="1.000000" stroke="none" 
	d="
M338.247192,83.816200 
	C338.341370,77.044739 338.341370,70.748909 338.341370,64.224899 
	C343.200226,64.224899 347.609161,64.224899 352.348328,64.224899 
	C352.348328,71.006256 352.348328,77.636353 352.348328,84.672989 
	C359.572021,84.672989 366.487701,84.672989 373.721252,84.672989 
	C373.721252,88.648262 373.721252,92.225449 373.721252,96.313477 
	C366.925903,96.313477 360.019409,96.313477 352.831543,96.313477 
	C352.661072,98.052391 352.430634,99.321159 352.428467,100.590332 
	C352.402740,115.585442 352.374756,130.580734 352.422668,145.575729 
	C352.457794,156.564240 354.305389,158.389786 365.145416,158.470795 
	C367.952820,158.491791 370.760498,158.473953 373.845917,158.473953 
	C373.845917,162.398148 373.845917,165.967163 373.845917,170.288452 
	C367.070435,169.986389 360.227570,170.273453 353.590210,169.240250 
	C344.660095,167.850143 339.600555,162.393234 338.969727,153.430695 
	C338.269409,143.481461 338.471954,133.465317 338.383118,123.477402 
	C338.304840,114.677437 338.366730,105.876228 338.366730,96.607513 
	C334.775421,96.607513 331.527313,96.607513 327.986359,96.607513 
	C327.986359,92.564232 327.986359,88.983459 327.986359,85.298340 
	C331.381836,84.962181 334.767456,84.626999 338.247192,83.816200 
z"/>
<path fill="#F6F6F6" opacity="1.000000" stroke="none" 
	d="
M83.412811,41.304012 
	C92.422058,45.787685 96.530418,51.799450 96.721565,60.673176 
	C82.877892,60.673176 69.040276,60.673176 55.203438,60.673176 
	C55.125267,46.123226 68.239784,37.060997 83.412811,41.304012 
z"/>
<path fill="#E6E6E6" opacity="1.000000" stroke="none" 
	d="
M105.112938,74.349380 
	C103.927956,76.350250 102.653793,77.973160 101.379631,79.596069 
	C100.059113,78.512932 97.956177,77.615044 97.643242,76.293350 
	C97.344177,75.030220 98.826523,72.123993 99.669479,72.067062 
	C101.403458,71.949966 103.233345,73.252899 105.112938,74.349380 
z"/>
<path fill="#E9E9E9" opacity="1.000000" stroke="none" 
	d="
M54.511189,75.822708 
	C52.848942,77.256721 51.358215,78.804207 49.604855,79.206207 
	C48.888592,79.370430 46.911381,77.127991 46.774754,75.845474 
	C46.641758,74.596992 47.814228,72.486458 48.963955,71.962677 
	C52.149647,70.511337 53.936604,72.313538 54.511189,75.822708 
z"/>
<path fill="#FCFCFC" opacity="1.000000" stroke="none" 
	d="
M735.738098,149.824005 
	C720.597107,145.015625 716.038696,129.244965 724.117432,117.846947 
	C728.830383,111.197594 737.572327,108.067398 745.701233,110.122467 
	C753.610474,112.121994 759.809875,119.429665 760.853333,127.983627 
	C761.772400,135.517456 757.267944,144.628494 750.011230,147.577332 
	C745.775024,149.298782 740.796448,149.193359 735.738098,149.824005 
z"/>
<path fill="#FBFBFB" opacity="1.000000" stroke="none" 
	d="
M186.172699,131.032867 
	C186.172699,127.413368 186.172699,124.287857 186.172699,121.076744 
	C196.442001,121.076744 206.279572,120.446350 215.998169,121.251656 
	C225.984848,122.079178 232.326111,129.755524 232.563583,139.364502 
	C232.813293,149.468842 227.028854,157.055939 216.425537,158.100281 
	C206.589096,159.069077 196.582169,158.306900 186.172699,158.306900 
	C186.172699,149.434814 186.172699,140.480835 186.172699,131.032867 
z"/>
<path fill="#FCFCFC" opacity="1.000000" stroke="none" 
	d="
M225.439850,103.419617 
	C221.328903,105.441826 217.578278,108.372581 213.605087,108.714119 
	C204.714432,109.478348 195.712952,108.953217 186.466003,108.953217 
	C186.466003,97.420837 186.466003,86.032547 186.466003,74.423874 
	C195.977921,74.423874 205.684326,73.349190 215.051346,74.674026 
	C229.348053,76.696091 234.418457,91.396019 225.439850,103.419617 
z"/>
<path fill="#FCFCFC" opacity="1.000000" stroke="none" 
	d="
M279.079285,96.852448 
	C295.140991,90.962158 314.253784,100.802101 314.523712,121.637344 
	C297.180695,121.637344 279.837524,121.637344 262.321869,121.637344 
	C263.273315,110.374260 267.755707,101.546593 279.079285,96.852448 
z"/>
</svg>